<svg xmlns="http://www.w3.org/2000/svg" viewBox="0 0 44 44" fill="none" id="community">
<path d="M39.2215 8.39453L34.547 13.0696C32.8785 12.2844 31.2249 12.7474 30.1742 13.7963C28.9893 14.9812 28.77 16.7348 29.4471 18.1698L25.6172 22.0002L29.263 25.6464L29.2719 25.6366C30.7794 24.1318 33.2307 24.1308 34.7404 25.6353C36.2485 27.1446 36.2485 29.5982 34.7404 31.1063L34.7315 31.1152L39.2216 35.6057C42.2983 30.6992 43.9979 27.982 44 22.0002C44.0026 14.0859 39.4849 8.91823 39.2215 8.39453Z" fill="#FF4E78"></path>
<path d="M13.7961 30.2041C14.981 29.0192 15.2003 27.2656 14.5232 25.8306L18.3532 22.0002L14.7073 18.3539L14.6984 18.3635C13.191 19.8684 10.7396 19.8693 9.22995 18.3648C7.72183 16.8555 7.72183 14.402 9.22995 12.8939L9.23888 12.885L4.74874 8.39453C1.672 13.3011 0.00206361 16.0183 1.11034e-06 22.0002C-0.00257701 29.9144 4.48534 35.0821 4.74874 35.6058L9.42331 30.9307C11.0918 31.716 12.7454 31.253 13.7961 30.2041Z" fill="#00FFD1"></path>
<path d="M30.9161 34.5615C31.7013 32.8928 31.2384 31.2394 30.1894 30.1887C29.0045 29.0038 27.251 28.7845 25.8159 29.4616L22.0003 25.6465L18.3393 29.2775L18.3489 29.2865C19.8537 30.7938 19.8548 33.2453 18.3502 34.7549C16.8409 36.263 14.3873 36.263 12.8792 34.7549L12.8704 34.746L8.37988 39.2361C9.21055 39.757 10.9398 41.1924 13.9578 42.382H13.9591C16.5608 43.4043 19.2878 44.0007 22.0003 43.9997C29.8988 43.9971 35.0664 39.5 35.5911 39.236L30.9161 34.5615Z" fill="#34CDFA"></path>
<path d="M22.0003 1.06136e-05C14.086 -0.00798157 8.90367 4.5003 8.37988 4.76353L13.055 9.4381C12.2698 11.1066 12.7327 12.7602 13.7817 13.8109C14.9666 14.9958 16.7201 15.2151 18.1552 14.538L22.0003 18.3532L25.6318 14.7221L25.622 14.7133C24.1172 13.2058 24.1161 10.7543 25.6207 9.24482C27.13 7.73671 29.5835 7.73671 31.0916 9.24482L31.1006 9.25367L35.5911 4.76353C30.6695 1.67734 27.9597 0.00619811 22.0003 1.06136e-05Z" fill="#6853BA"></path>
</svg>