<svg width="40" height="44" viewBox="0 0 40 44" fill="none" xmlns="http://www.w3.org/2000/svg">
<path fill-rule="evenodd" clip-rule="evenodd" d="M19.7085 0C25.197 1.32531 30.9927 1.32531 39.154 7.50769V18.3968C39.154 38.0473 29.767 38.0473 19.7006 44C7.56671 38.0362 0 36.395 0 18.3968V7.50769C8.36039 1.32841 14.1424 1.32531 19.7085 0ZM20.9533 15.5022L20.5034 15.506V38.7637L20.8669 38.5273C23.3615 36.8616 24.8091 34.9649 25.2097 32.8369L25.197 21.2048L25.604 21.2785C27.508 21.6659 29.472 22.6574 31.4962 24.2531C31.8007 21.116 30.8652 18.9571 28.6897 17.7766C25.7708 16.1926 23.042 15.4358 20.5034 15.506L20.9533 15.5022ZM18.8273 5.03615C17.4686 5.16868 15.8629 5.5 14.1337 6.03012L14.1684 25.0211C14.1684 26.4487 13.1005 27.5663 11.7497 27.5663C10.3989 27.5663 9.44886 26.3903 9.44886 25.0482V7.52109C7.34334 8.60341 5.75824 9.56072 4.69354 10.393C4.69354 31.1446 4.09899 29.6598 18.8273 38.7637V5.03615ZM20.5034 5.03615V10.3387L21.0977 10.4174C27.3809 11.3021 31.8356 13.6394 34.4614 17.429C34.975 13.5208 34.3159 10.8924 32.4843 9.54359C29.5042 7.349 25.5106 5.84651 20.5034 5.03615Z" fill="#01F496"/>
</svg>
