<svg width="44" height="44" viewBox="0 0 44 44" fill="none" xmlns="http://www.w3.org/2000/svg">
<rect width="44" height="44" rx="20" fill="white"/>
<path fill-rule="evenodd" clip-rule="evenodd" d="M14.7918 14.9729C11.7925 14.2745 8.89679 11.8241 8.46868 7.11628C8.41384 6.51319 8.35068 5.98474 8.28223 5.5217C12.0438 2.49623 16.8128 0.6875 22.0013 0.6875C28.2976 0.6875 33.9761 3.35102 37.9863 7.62019C35.8978 8.44689 17.619 15.6313 14.7918 14.9729Z" fill="#2642B4"/>
<path fill-rule="evenodd" clip-rule="evenodd" d="M32.9003 39.9042C39.182 36.1926 40.2506 33.0172 41.46 27.9131C42.6693 22.8089 27.3304 25.6399 23.2009 27.399C19.0714 29.1581 16.7749 34.2752 20.9809 39.1175C25.1869 43.9597 26.6186 43.6159 32.9003 39.9042Z" fill="#2642B4"/>
<path fill-rule="evenodd" clip-rule="evenodd" d="M41.2434 33.584C37.0818 34.457 32.092 37.25 29.8743 39.1637C27.7281 41.0156 28.4952 42.8581 31.3487 42.9012C35.5382 40.9174 39.0052 37.6417 41.2434 33.584Z" fill="#4393FF"/>
<path fill-rule="evenodd" clip-rule="evenodd" d="M36.7773 6.42912C32.1931 4.01924 29.8286 4.70279 19.6871 8.48645C6.95913 13.2351 12.2912 23.3463 21.9991 26.7163C22.936 27.0416 23.8484 27.3628 24.7366 27.6754C32.5179 30.4145 38.4297 32.4955 42.5123 30.8665C43.4729 28.3783 43.9999 25.672 43.9999 22.8418C43.9999 16.3344 41.2138 10.4823 36.7773 6.42912Z" fill="#4393FF"/>
<path fill-rule="evenodd" clip-rule="evenodd" d="M2.32715 12.915C5.92963 12.799 12.9387 10.7447 15.6642 6.80853C18.2874 3.02004 15.8879 2.46951 12.3579 2.92399C8.02443 5.05518 4.48953 8.57817 2.32715 12.915Z" fill="#4393FF"/>
<path fill-rule="evenodd" clip-rule="evenodd" d="M1.29639 15.332C0.457303 17.6773 0 20.2061 0 22.8425C0 31.996 5.51263 39.853 13.3771 43.2304C13.5532 40.7434 13.6747 37.7904 13.5529 35.1284C13.3377 30.4229 6.64226 21.1294 1.29639 15.332Z" fill="#4393FF"/>
</svg>
